<svg width="83" height="82" viewBox="0 0 83 82" fill="none" xmlns="http://www.w3.org/2000/svg">
<g clip-path="url(#clip0_152_1436)">
<g clip-path="url(#clip1_152_1436)">
<path d="M76.7749 8.90439H71.7222V5.21622H11.4063V8.90439H6.21517C3.55533 8.90439 1.38989 11.0698 1.38989 13.7396V65.7398C1.38989 68.3996 3.55533 70.5749 6.21517 70.5749H76.7749C79.4347 70.5749 81.6101 68.4095 81.6101 65.7398V13.7396C81.6101 11.0797 79.4446 8.90439 76.7749 8.90439Z" fill="white"/>
<path d="M6.21517 70.575C3.55533 70.575 1.38989 68.4095 1.38989 65.7398V62.8723H81.6101V65.7398C81.6101 68.3996 79.4446 70.575 76.7749 70.575H6.21517Z" fill="white"/>
<path d="M32.6553 78.8016C35.592 76.5571 36.4523 73.1458 36.3138 71.1682H46.6862C46.5478 73.1557 47.4179 76.567 50.3447 78.8016H32.6553V78.8016Z" fill="white"/>
<path d="M72.4638 67.5394C72.0584 67.5394 71.7222 67.2032 71.7222 66.7978C71.7222 66.3924 72.0584 66.0562 72.4638 66.0562H74.3227C74.7281 66.0562 75.0643 66.3924 75.0643 66.7978C75.0643 67.2032 74.7281 67.5394 74.3227 67.5394H72.4638Z" fill="#1A1A1A"/>
<path d="M66.096 67.5394C65.6906 67.5394 65.3544 67.2032 65.3544 66.7978C65.3544 66.3924 65.6906 66.0562 66.096 66.0562H67.9549C68.3603 66.0562 68.6965 66.3924 68.6965 66.7978C68.6965 67.2032 68.3603 67.5394 67.9549 67.5394H66.096Z" fill="#1A1A1A"/>
<path d="M59.7382 67.5394C59.3328 67.5394 58.9966 67.2032 58.9966 66.7978C58.9966 66.3924 59.3328 66.0562 59.7382 66.0562H61.5971C62.0025 66.0562 62.3387 66.3924 62.3387 66.7978C62.3387 67.2032 62.0025 67.5394 61.5971 67.5394H59.7382Z" fill="#1A1A1A"/>
<path d="M76.7749 8.01447H72.4737V9.20101H76.7749C79.2766 9.20101 81.3135 11.2379 81.3135 13.7395V61.7352H70.2786L70.2292 61.8242L69.9226 61.7352H1.68654V13.7395C1.68654 11.2379 3.71355 9.20101 6.21518 9.20101H10.7933V8.01447H6.21518C3.06096 8.01447 0.5 10.5754 0.5 13.7395V65.7398C0.5 67.2625 1.09327 68.7061 2.18094 69.7839C3.25871 70.8617 4.69245 71.4649 6.21518 71.4649H35.4437L35.4239 71.9395C35.325 73.8379 34.267 76.6856 31.6072 78.4457L31.4984 78.5149H28.1761C27.8498 78.5149 27.5828 78.7819 27.5828 79.1082C27.5828 79.4345 27.8498 79.7014 28.1761 79.7014H54.8338C55.1601 79.7014 55.427 79.4345 55.427 79.1082C55.427 78.7819 55.1601 78.5149 54.8338 78.5149H51.551L51.4323 78.4654L51.3928 78.4457C48.733 76.6856 47.675 73.8478 47.5761 71.9395L47.5563 71.4649H76.7848C79.939 71.4649 82.5099 68.894 82.5099 65.7398V13.7395C82.5099 10.5853 79.939 8.01447 76.7848 8.01447H76.7749ZM48.8121 77.7733L49.4647 78.5149H33.5254L34.178 77.7733C35.6316 76.1121 36.5412 73.917 36.6203 71.8999L36.6401 71.4747H46.3599L46.3797 71.8999C46.4588 73.9269 47.3684 76.122 48.822 77.7733H48.8121ZM81.3036 65.7497C81.3036 68.2513 79.2667 70.2882 76.765 70.2882H6.21518C3.71355 70.2882 1.68654 68.2513 1.68654 65.7497V62.9316H81.3135V65.7497H81.3036Z" fill="#1A1A1A"/>
<path fill-rule="evenodd" clip-rule="evenodd" d="M10.7933 44.8566C10.4571 44.8566 10.1802 44.5798 10.1802 44.2436V4.61305C10.1802 4.27686 10.4571 4 10.7933 4H72.2068C72.5429 4 72.8198 4.27686 72.8198 4.61305V44.2436C72.8198 44.5798 72.5429 44.8566 72.2068 44.8566H10.7933ZM11.4063 43.6404H71.6036V5.21621H11.4063V43.6305V43.6404Z" fill="#1A1A1A"/>
<path fill-rule="evenodd" clip-rule="evenodd" d="M14.877 8.67696C14.5408 8.67696 14.2639 8.4001 14.2639 8.06391C14.2639 7.72773 14.5408 7.45087 14.877 7.45087H17.9422C18.2784 7.45087 18.5552 7.72773 18.5552 8.06391C18.5552 8.4001 18.2784 8.67696 17.9422 8.67696H14.877V8.67696Z" fill="#1A1A1A"/>
<path fill-rule="evenodd" clip-rule="evenodd" d="M26.159 8.67696C25.8228 8.67696 25.546 8.4001 25.546 8.06391C25.546 7.72773 25.8228 7.45087 26.159 7.45087H29.2242C29.5604 7.45087 29.8373 7.72773 29.8373 8.06391C29.8373 8.4001 29.5604 8.67696 29.2242 8.67696H26.159Z" fill="#1A1A1A"/>
<path fill-rule="evenodd" clip-rule="evenodd" d="M61.073 8.67696C60.7368 8.67696 60.46 8.4001 60.46 8.06391C60.46 7.72773 60.7368 7.45087 61.073 7.45087H68.1329C68.4691 7.45087 68.746 7.72773 68.746 8.06391C68.746 8.4001 68.4691 8.67696 68.1329 8.67696H61.073V8.67696Z" fill="#1A1A1A"/>
<path fill-rule="evenodd" clip-rule="evenodd" d="M10.7933 12.1377C10.4571 12.1377 10.1802 11.8609 10.1802 11.5247C10.1802 11.1885 10.4571 10.9116 10.7933 10.9116H72.2068C72.5429 10.9116 72.8198 11.1885 72.8198 11.5247C72.8198 11.8609 72.5429 12.1377 72.2068 12.1377H10.7933Z" fill="#1A1A1A"/>
<path fill-rule="evenodd" clip-rule="evenodd" d="M10.7933 18.6835C10.4571 18.6835 10.1802 18.4066 10.1802 18.0704C10.1802 17.7342 10.4571 17.4574 10.7933 17.4574H72.2068C72.5429 17.4574 72.8198 17.7342 72.8198 18.0704C72.8198 18.4066 72.5429 18.6835 72.2068 18.6835H10.7933Z" fill="#1A1A1A"/>
<path fill-rule="evenodd" clip-rule="evenodd" d="M10.7933 25.2292C10.4571 25.2292 10.1802 24.9524 10.1802 24.6162C10.1802 24.28 10.4571 24.0031 10.7933 24.0031H72.2068C72.5429 24.0031 72.8198 24.28 72.8198 24.6162C72.8198 24.9524 72.5429 25.2292 72.2068 25.2292H10.7933Z" fill="#1A1A1A"/>
<path fill-rule="evenodd" clip-rule="evenodd" d="M10.7933 31.7651C10.4571 31.7651 10.1802 31.4882 10.1802 31.152C10.1802 30.8159 10.4571 30.539 10.7933 30.539H72.2068C72.5429 30.539 72.8198 30.8159 72.8198 31.152C72.8198 31.4882 72.5429 31.7651 72.2068 31.7651H10.7933Z" fill="#1A1A1A"/>
<path fill-rule="evenodd" clip-rule="evenodd" d="M10.7933 38.3109C10.4571 38.3109 10.1802 38.034 10.1802 37.6978C10.1802 37.3616 10.4571 37.0848 10.7933 37.0848H72.2068C72.5429 37.0848 72.8198 37.3616 72.8198 37.6978C72.8198 38.034 72.5429 38.3109 72.2068 38.3109H10.7933Z" fill="#1A1A1A"/>
<path fill-rule="evenodd" clip-rule="evenodd" d="M10.7933 44.8566C10.4571 44.8566 10.1802 44.5798 10.1802 44.2436C10.1802 43.9074 10.4571 43.6305 10.7933 43.6305H72.2068C72.5429 43.6305 72.8198 43.9074 72.8198 44.2436C72.8198 44.5798 72.5429 44.8566 72.2068 44.8566H10.7933Z" fill="#1A1A1A"/>
<path fill-rule="evenodd" clip-rule="evenodd" d="M20.513 8.67696C20.1768 8.67696 19.9 8.4001 19.9 8.06391C19.9 7.72773 20.1768 7.45087 20.513 7.45087H23.5782C23.9144 7.45087 24.1913 7.72773 24.1913 8.06391C24.1913 8.4001 23.9144 8.67696 23.5782 8.67696H20.513Z" fill="#1A1A1A"/>
<path fill-rule="evenodd" clip-rule="evenodd" d="M10.7933 50.6015C10.4571 50.6015 10.1802 50.3246 10.1802 49.9884C10.1802 49.6522 10.4571 49.3754 10.7933 49.3754H72.2068C72.5429 49.3754 72.8198 49.6522 72.8198 49.9884C72.8198 50.3246 72.5429 50.6015 72.2068 50.6015H10.7933Z" fill="#1A1A1A"/>
<path fill-rule="evenodd" clip-rule="evenodd" d="M10.7933 57.1571C10.4571 57.1571 10.1802 56.8803 10.1802 56.5441C10.1802 56.2079 10.4571 55.931 10.7933 55.931H72.2068C72.5429 55.931 72.8198 56.2079 72.8198 56.5441C72.8198 56.8803 72.5429 57.1571 72.2068 57.1571H10.7933Z" fill="#1A1A1A"/>
<path fill-rule="evenodd" clip-rule="evenodd" d="M18.3179 62.8921C17.9818 62.8921 17.7049 62.6746 17.7049 62.4076V11.6532C17.7049 11.3862 17.9818 11.1687 18.3179 11.1687C18.6541 11.1687 18.931 11.3862 18.931 11.6532V62.3977C18.931 62.6647 18.6541 62.8822 18.3179 62.8822V62.8921Z" fill="#1A1A1A"/>
<path fill-rule="evenodd" clip-rule="evenodd" d="M30.8458 62.9316C30.5096 62.9316 30.2328 62.7141 30.2328 62.4372V11.6928C30.2328 11.4258 30.5096 11.2083 30.8458 11.2083C31.182 11.2083 31.4589 11.4258 31.4589 11.6928V62.4372C31.4589 62.7042 31.182 62.9316 30.8458 62.9316Z" fill="#1A1A1A"/>
<path fill-rule="evenodd" clip-rule="evenodd" d="M44.9163 62.9316C44.5801 62.9316 44.3032 62.7141 44.3032 62.4372V11.6928C44.3032 11.4258 44.5801 11.2083 44.9163 11.2083C45.2525 11.2083 45.5293 11.4258 45.5293 11.6928V62.4372C45.5293 62.7042 45.2525 62.9316 44.9163 62.9316Z" fill="#1A1A1A"/>
<path fill-rule="evenodd" clip-rule="evenodd" d="M58.9966 62.7042C58.6604 62.7042 58.3835 62.4867 58.3835 62.2296V12.6716C58.3835 12.4047 58.6604 12.197 58.9966 12.197C59.3328 12.197 59.6096 12.4146 59.6096 12.6716V62.2296C59.6096 62.4965 59.3328 62.7042 58.9966 62.7042Z" fill="#1A1A1A"/>
<path fill-rule="evenodd" clip-rule="evenodd" d="M10.7933 62.8921C10.4571 62.8921 10.1802 62.6746 10.1802 62.4076V11.6532C10.1802 11.3862 10.4571 11.1687 10.7933 11.1687C11.1295 11.1687 11.4063 11.3862 11.4063 11.6532V62.3977C11.4063 62.6647 11.1295 62.8822 10.7933 62.8822V62.8921Z" fill="#1A1A1A"/>
<path fill-rule="evenodd" clip-rule="evenodd" d="M72.2067 62.6449C71.8705 62.6449 71.5937 62.4274 71.5937 62.1604V11.4159C71.5937 11.1489 71.8705 10.9314 72.2067 10.9314C72.5429 10.9314 72.8198 11.1489 72.8198 11.4159V62.1604C72.8198 62.4274 72.5429 62.6449 72.2067 62.6449Z" fill="#1A1A1A"/>
</g>
</g>
<defs>
<clipPath id="clip0_152_1436">
<rect width="82" height="82" fill="white" transform="translate(0.5)"/>
</clipPath>
<clipPath id="clip1_152_1436">
<rect width="82" height="75.6916" fill="white" transform="translate(0.5 4)"/>
</clipPath>
</defs>
</svg>
