<svg width="87" height="82" viewBox="0 0 87 82" fill="none" xmlns="http://www.w3.org/2000/svg">
<g clip-path="url(#clip0_152_1437)">
<g clip-path="url(#clip1_152_1437)">
<path d="M82.1999 39.1H64.6199C64.1499 39.1 63.6999 39.19 63.2699 39.33V18.09C63.2699 16.73 63.8699 15.52 64.8099 14.68C63.8699 15.52 63.2699 16.73 63.2699 18.09V23.46H70.7399C71.6799 23.46 72.4399 22.7 72.4399 21.76V18.09C72.4399 15.56 70.3899 13.5 67.8499 13.5C67.8499 13.5 67.8499 13.5 67.8399 13.5H19.1799C16.6399 13.5 14.5899 15.55 14.5899 18.09V67.58H7.97993C6.56993 67.58 5.42993 68.72 5.42993 70.13V74.53C5.42993 75.79 5.94993 76.94 6.76993 77.77C7.59993 78.6 8.74993 79.11 10.0099 79.11H58.6899C58.6899 79.11 58.6699 79.11 58.6599 79.11H58.6799C59.8399 79.11 60.8799 78.67 61.6799 77.97C62.4599 78.68 63.4799 79.12 64.6099 79.12H82.1899C84.5999 79.12 86.5599 77.16 86.5599 74.75V43.47C86.5599 41.06 84.5999 39.1 82.1899 39.1H82.1999Z" fill="white"/>
<path d="M27.9199 55.42C27.5899 55.42 27.3099 55.15 27.3099 54.81C27.3099 54.47 27.5799 54.2 27.9199 54.2H49.4399C49.7699 54.2 50.0499 54.47 50.0499 54.81C50.0499 55.14 49.7799 55.42 49.4399 55.42H27.9199Z" fill="#1A1A1A"/>
<path d="M31.48 60.19C31.15 60.19 30.87 59.92 30.87 59.58C30.87 59.24 31.14 58.97 31.48 58.97H45.89C46.22 58.97 46.5 59.24 46.5 59.58C46.5 59.92 46.23 60.19 45.89 60.19H31.48Z" fill="#1A1A1A"/>
<path d="M22.2599 47.08C21.9299 47.08 21.6499 46.81 21.6499 46.47V22.17C21.6499 21.83 21.9199 21.56 22.2599 21.56H55.0999C55.4299 21.56 55.7099 21.83 55.7099 22.17V46.48C55.7099 46.81 55.4399 47.09 55.0999 47.09H22.2599V47.08ZM47.2999 45.86H54.4899V41H47.2999V45.86ZM22.8699 45.86H46.0899V41H22.8699V45.86V45.86ZM47.2999 39.78H54.4899V34.92H47.2999V39.78ZM22.8699 39.78H46.0899V34.92H22.8699V39.78V39.78ZM47.2999 33.7H54.4899V28.84H47.2999V33.7ZM22.8699 33.7H46.0899V28.84H22.8699V33.7V33.7ZM47.2999 27.62H54.4899V22.76H47.2999V27.62ZM22.8699 27.62H46.0899V22.76H22.8699V27.62V27.62Z" fill="#1A1A1A"/>
<path d="M9.74994 79.18C6.88994 79.18 4.55994 76.85 4.55994 73.99V69.58C4.55994 67.84 5.97994 66.42 7.71994 66.42H13.7299V17.54C13.7299 14.68 16.0599 12.35 18.9199 12.35H67.5299C70.4699 12.35 72.7999 14.68 72.7999 17.54V21.21C72.7999 22.48 71.7599 23.52 70.4899 23.52H63.6199V38L63.8999 37.97C64.0499 37.96 64.2099 37.95 64.3599 37.95H81.9399C84.6899 37.95 86.9199 40.18 86.9199 42.93V74.21C86.9199 76.96 84.6899 79.19 81.9399 79.19H64.3599C63.3599 79.19 62.3899 78.89 61.5599 78.32L61.4199 78.22L61.2799 78.31C60.4199 78.88 59.4399 79.18 58.4399 79.18H9.74994ZM64.3599 39.16C62.2799 39.16 60.5999 40.85 60.5999 42.92V74.2C60.5999 76.28 62.2899 77.96 64.3599 77.96H81.9399C84.0199 77.96 85.6999 76.27 85.6999 74.2V42.92C85.6999 40.84 84.0099 39.16 81.9399 39.16H64.3599ZM18.9299 13.56C16.7399 13.56 14.9499 15.34 14.9499 17.54V66.42H51.2999C53.0399 66.42 54.4599 67.84 54.4599 69.58V73.99C54.4599 76.18 56.2399 77.97 58.4399 77.97C59.0699 77.97 59.6799 77.81 60.2599 77.51L60.5199 77.37L60.3499 77.13C59.7199 76.27 59.3899 75.26 59.3899 74.2V42.92C59.3899 41 60.5199 39.23 62.2699 38.41L62.4199 38.34V17.54C62.4199 16.24 62.9299 14.94 63.8299 13.99L64.2299 13.56H18.9299V13.56ZM7.71994 67.64C6.64994 67.64 5.77994 68.51 5.77994 69.58V73.99C5.77994 76.18 7.55994 77.97 9.75994 77.97H55.0499L54.6499 77.54C53.7399 76.58 53.2499 75.32 53.2499 73.99V69.58C53.2499 68.51 52.3799 67.64 51.3099 67.64H7.71994ZM67.5099 13.58C65.3999 13.58 63.6299 15.36 63.6299 17.54V22.3H70.4899C71.0899 22.3 71.5799 21.81 71.5799 21.21V17.54C71.5799 15.36 69.7999 13.57 67.6199 13.56H67.5299C67.5299 13.56 67.5199 13.57 67.5099 13.57V13.58Z" fill="#1A1A1A"/>
<path d="M79.3499 75.38C78.2099 75.38 77.2799 74.45 77.2799 73.31V64.62C77.2799 63.48 78.2099 62.55 79.3499 62.55H80.8199C81.9599 62.55 82.8899 63.48 82.8899 64.62V73.31C82.8899 74.45 81.9599 75.38 80.8199 75.38H79.3499ZM79.3499 63.76C78.8699 63.76 78.4999 64.14 78.4999 64.61V73.3C78.4999 73.77 78.8799 74.15 79.3499 74.15H80.8199C81.2899 74.15 81.6699 73.77 81.6699 73.3V64.61C81.6699 64.13 81.2899 63.76 80.8199 63.76H79.3499Z" fill="#1A1A1A"/>
<path d="M65.5799 60.94C64.4399 60.94 63.5099 60.01 63.5099 58.87V57.39C63.5099 56.25 64.4399 55.32 65.5799 55.32H67.0599C68.1999 55.32 69.1299 56.25 69.1299 57.39V58.87C69.1299 60.01 68.1999 60.94 67.0599 60.94H65.5799ZM65.5799 56.54C65.1099 56.54 64.7299 56.92 64.7299 57.39V58.87C64.7299 59.34 65.1099 59.72 65.5799 59.72H67.0599C67.5299 59.72 67.9099 59.34 67.9099 58.87V57.39C67.9099 56.92 67.5299 56.54 67.0599 56.54H65.5799Z" fill="#1A1A1A"/>
<path d="M66.0399 53.72C64.6499 53.72 63.5099 52.59 63.5099 51.19V44.36C63.5099 42.96 64.6399 41.83 66.0399 41.83H80.2799C81.6699 41.83 82.8099 42.97 82.8099 44.36V51.19C82.8099 52.58 81.6799 53.72 80.2799 53.72H66.0399ZM66.0399 43.04C65.3199 43.04 64.7299 43.63 64.7299 44.35V51.18C64.7299 51.9 65.3199 52.49 66.0399 52.49H80.2799C80.9999 52.49 81.5899 51.9 81.5899 51.18V44.35C81.5899 43.63 80.9999 43.04 80.2799 43.04H66.0399Z" fill="#1A1A1A"/>
<path d="M72.4599 60.94C71.3199 60.94 70.3899 60.01 70.3899 58.87V57.4C70.3899 56.26 71.3199 55.33 72.4599 55.33H73.9399C75.0799 55.33 76.0099 56.26 76.0099 57.4V58.87C76.0099 60.01 75.0799 60.94 73.9399 60.94H72.4599ZM72.4599 56.54C71.9899 56.54 71.6099 56.92 71.6099 57.39V58.87C71.6099 59.34 71.9899 59.72 72.4599 59.72H73.9399C74.4099 59.72 74.7899 59.34 74.7899 58.87V57.39C74.7899 56.92 74.4099 56.54 73.9399 56.54H72.4599Z" fill="#1A1A1A"/>
<path d="M79.3499 60.94C78.2099 60.94 77.2799 60.01 77.2799 58.87V57.4C77.2799 56.26 78.2099 55.33 79.3499 55.33H80.8299C81.9699 55.33 82.8999 56.26 82.8999 57.4V58.87C82.8999 60.01 81.9699 60.94 80.8299 60.94H79.3499ZM79.3499 56.54C78.8799 56.54 78.4999 56.92 78.4999 57.39V58.87C78.4999 59.34 78.8799 59.72 79.3499 59.72H80.8299C81.2999 59.72 81.6799 59.34 81.6799 58.87V57.39C81.6799 56.92 81.2999 56.54 80.8299 56.54H79.3499Z" fill="#1A1A1A"/>
<path d="M65.5799 68.16C64.4399 68.16 63.5099 67.23 63.5099 66.09V64.61C63.5099 63.47 64.4399 62.54 65.5799 62.54H67.0599C68.1999 62.54 69.1299 63.47 69.1299 64.61V66.09C69.1299 67.23 68.1999 68.16 67.0599 68.16H65.5799ZM65.5799 63.76C65.1099 63.76 64.7299 64.14 64.7299 64.61V66.09C64.7299 66.56 65.1099 66.94 65.5799 66.94H67.0599C67.5299 66.94 67.9099 66.56 67.9099 66.09V64.61C67.9099 64.14 67.5299 63.76 67.0599 63.76H65.5799Z" fill="#1A1A1A"/>
<path d="M72.4599 68.16C71.3199 68.16 70.3899 67.23 70.3899 66.09V64.61C70.3899 63.47 71.3199 62.54 72.4599 62.54H73.9399C75.0799 62.54 76.0099 63.47 76.0099 64.61V66.09C76.0099 67.23 75.0799 68.16 73.9399 68.16H72.4599ZM72.4599 63.76C71.9899 63.76 71.6099 64.14 71.6099 64.61V66.09C71.6099 66.56 71.9899 66.94 72.4599 66.94H73.9399C74.4099 66.94 74.7899 66.56 74.7899 66.09V64.61C74.7899 64.14 74.4099 63.76 73.9399 63.76H72.4599Z" fill="#1A1A1A"/>
<path d="M65.5799 75.38C64.4399 75.38 63.5099 74.45 63.5099 73.31V71.83C63.5099 70.69 64.4399 69.76 65.5799 69.76H67.0599C68.1999 69.76 69.1299 70.69 69.1299 71.83V73.31C69.1299 74.45 68.1999 75.38 67.0599 75.38H65.5799ZM65.5799 70.98C65.1099 70.98 64.7299 71.36 64.7299 71.83V73.31C64.7299 73.78 65.1099 74.16 65.5799 74.16H67.0599C67.5299 74.16 67.9099 73.78 67.9099 73.31V71.83C67.9099 71.36 67.5299 70.98 67.0599 70.98H65.5799Z" fill="#1A1A1A"/>
<path d="M72.4599 75.38C71.3199 75.38 70.3899 74.45 70.3899 73.31V71.84C70.3899 70.7 71.3199 69.77 72.4599 69.77H73.9399C75.0799 69.77 76.0099 70.7 76.0099 71.84V73.31C76.0099 74.45 75.0799 75.38 73.9399 75.38H72.4599ZM72.4599 70.98C71.9899 70.98 71.6099 71.36 71.6099 71.83V73.31C71.6099 73.78 71.9899 74.16 72.4599 74.16H73.9399C74.4099 74.16 74.7899 73.78 74.7899 73.31V71.83C74.7899 71.36 74.4099 70.98 73.9399 70.98H72.4599Z" fill="#1A1A1A"/>
<path d="M13.41 29.03C20.4185 29.03 26.1 23.3485 26.1 16.34C26.1 9.3315 20.4185 3.64999 13.41 3.64999C6.40148 3.64999 0.719971 9.3315 0.719971 16.34C0.719971 23.3485 6.40148 29.03 13.41 29.03Z" fill="white" stroke="#1A1A1A" stroke-width="1.3"/>
<path d="M14.46 19.32C14.46 19.46 14.39 19.54 14.24 19.54H12.58C12.44 19.54 12.36 19.47 12.36 19.32V9.47C12.36 9.33 12.43 9.25 12.58 9.25H14.24C14.38 9.25 14.46 9.32 14.46 9.47V19.32ZM14.46 23.34C14.46 23.48 14.39 23.56 14.24 23.56H12.58C12.44 23.56 12.36 23.49 12.36 23.34V21.68C12.36 21.54 12.43 21.46 12.58 21.46H14.24C14.38 21.46 14.46 21.53 14.46 21.68V23.34Z" fill="#1A1A1A"/>
</g>
</g>
<defs>
<clipPath id="clip0_152_1437">
<rect width="86.86" height="82" fill="white" transform="translate(0.0699463)"/>
</clipPath>
<clipPath id="clip1_152_1437">
<rect width="86.86" height="76.18" fill="white" transform="translate(0.0699463 3)"/>
</clipPath>
</defs>
</svg>
