<svg width="83" height="82" viewBox="0 0 83 82" fill="none" xmlns="http://www.w3.org/2000/svg">
<path d="M34.2076 10.7346C33.7261 11.0304 33 11.4764 33 12.3909C33 12.7266 33.2597 13 33.5787 13C33.8719 13 34.1195 12.7698 34.1544 12.466L34.1833 12.2166L34.3747 12.0647C34.4901 11.9736 34.6648 11.8665 34.7924 11.7882C35.2739 11.4924 36 11.0464 36 10.1319C36 9.21743 35.2967 8.78417 34.7833 8.46922C34.7833 8.46922 34.677 8.40368 34.6329 8.3749L33.8339 7.86651L34.3884 7.51799C34.3884 7.51799 34.7453 7.29416 34.7924 7.26539C35.2739 6.96962 36 6.52358 36 5.60911C36 5.27338 35.7403 5 35.4213 5C35.1281 5 34.8805 5.23022 34.8456 5.53397L34.8167 5.78337L34.6253 5.93525C34.5084 6.02798 34.3337 6.13349 34.2076 6.21183C33.7261 6.50759 33 6.95364 33 7.86811C33 8.78257 33.7352 9.23501 34.2213 9.53397C34.2213 9.53397 34.323 9.59632 34.3671 9.6235L35.1691 10.1303L34.4263 10.5955C34.4263 10.5955 34.2532 10.7042 34.2076 10.7314V10.7346Z" fill="#1A1A1A"/>
<path d="M40.003 12.3677C40.003 12.7162 40.2627 13 40.5815 13C40.8745 13 41.122 12.761 41.1569 12.4424L41.1857 12.1851L41.3755 12.0291C41.4894 11.9345 41.664 11.8233 41.793 11.742C42.2743 11.435 43 10.9719 43 10.0226C43 9.07328 42.2667 8.60526 41.7809 8.29491C41.7809 8.29491 41.6776 8.22852 41.6321 8.19865L40.832 7.67088L41.0172 7.54973C41.0172 7.54973 41.746 7.07673 41.7915 7.04685C42.2728 6.73982 42.9985 6.27678 42.9985 5.32746C42.9985 4.37814 42.2728 3.91344 41.793 3.60807C41.746 3.57819 41.3861 3.34418 41.3861 3.34418L40.8274 2.98072L41.3861 2.61726C41.3861 2.61726 41.746 2.38325 41.7915 2.35338C42.2728 2.04634 42.9985 1.5833 42.9985 0.632325C42.9985 0.283799 42.7389 0 42.42 0C42.127 0 41.8796 0.238989 41.8446 0.555981L41.8158 0.814886L41.6245 0.972552C41.5091 1.06715 41.3345 1.18001 41.207 1.25967C40.7257 1.5667 40 2.02975 40 2.98072C40 3.9317 40.7272 4.39474 41.207 4.70177L41.2298 4.71671C41.2723 4.74327 41.3193 4.7748 41.3664 4.80467L42.1665 5.33244L41.9813 5.45359C41.9813 5.45359 41.2525 5.92659 41.207 5.95647C40.7257 6.2635 40 6.72654 40 7.67586C40 8.62518 40.7014 9.07328 41.2176 9.40355C41.2632 9.43176 41.3148 9.46496 41.3664 9.49981L42.1665 10.0259C42.1665 10.0259 41.2525 10.6201 41.207 10.6499C40.7257 10.957 40 11.42 40 12.3693L40.003 12.3677Z" fill="#1A1A1A"/>
<path d="M48.2076 10.7351C47.7261 11.0308 47 11.4767 47 12.391C47 12.7267 47.2597 13 47.5787 13C47.8719 13 48.1195 12.7698 48.1544 12.4645L48.1833 12.2152L48.3747 12.0633C48.4901 11.9722 48.6648 11.8651 48.7924 11.7868C49.2739 11.4911 50 11.0452 50 10.1309C50 9.21658 49.2922 8.78182 48.7742 8.46374C48.7301 8.43656 48.68 8.40619 48.6314 8.37423L47.8324 7.86593L48.0177 7.74925C48.0177 7.74925 48.7438 7.29371 48.7909 7.26493C49.2724 6.96923 49.9985 6.52328 49.9985 5.60899C49.9985 5.27333 49.7387 5 49.4197 5C49.1266 5 48.879 5.23017 48.844 5.53546L48.8152 5.78481L48.6253 5.93506C48.5099 6.02617 48.3352 6.13327 48.2076 6.21319C47.7261 6.50889 47 6.95484 47 7.86913C47 8.78342 47.7276 9.23097 48.2076 9.52667C48.2532 9.55544 49.1706 10.1277 49.1706 10.1277L48.3656 10.6344C48.3094 10.6695 48.2547 10.7047 48.2076 10.7335V10.7351Z" fill="#1A1A1A"/>
<path d="M81.9984 50.1479V36.5826C81.9984 36.409 81.923 36.2435 81.7929 36.1262L81.4559 35.824L81.6597 35.4207C81.8844 34.9707 81.9984 34.4886 81.9984 33.9855C81.9984 33.1691 81.6902 32.3913 81.13 31.7935L80.7512 31.3885L81.13 30.9835C81.6902 30.3857 81.9984 29.6079 81.9984 28.7915C81.9984 27.9751 81.6902 27.1973 81.13 26.5994L80.7512 26.1945L81.13 25.7895C81.6902 25.1916 81.9984 24.4138 81.9984 23.5974C81.9984 22.3857 81.3259 21.2897 80.244 20.7368L79.7031 20.4604L79.992 19.9269C80.244 19.4608 80.3772 18.9353 80.3772 18.4034C80.3772 17.8714 80.244 17.3443 79.992 16.8799L79.7031 16.3463L80.2424 16.0715C81.3259 15.5187 81.9984 14.4227 81.9984 13.2109C81.9984 11.4399 80.5602 10 78.7914 10H65.4032C64.7082 10 64.1432 10.5657 64.1432 11.2632V15.1957H62.1609C61.4659 15.1957 60.8993 15.7614 60.8993 16.4588V20.3544C60.8993 21.0502 61.4643 21.6175 62.1609 21.6175H64.1432V25.5323L63.6248 25.5982C62.9956 25.677 62.5221 26.2153 62.5221 26.8485V29.1724L55.5061 22.1495C54.1659 20.8059 52.3826 20.0667 50.487 20.0667H46.7535L46.5769 19.8546C45.3121 18.3391 43.463 17.4697 41.5 17.4697C39.537 17.4697 37.6879 18.3391 36.4247 19.8546L36.2465 20.0683H32.513C30.6174 20.0683 28.8341 20.8076 27.4923 22.1511L27.0974 22.5464L27.0942 22.5432L22.2869 27.3564L22.2901 27.3596L20.4796 29.1724V26.8501C20.4796 26.1543 19.9146 25.587 19.2179 25.587H17.2356V21.6545C17.2356 20.9586 16.6706 20.3913 15.9756 20.3913H4.207C2.43817 20.3913 1 21.8313 1 23.6023C1 24.4186 1.30818 25.1965 1.86836 25.7959L2.24556 26.2009L1.86836 26.6059C1.30818 27.2037 1 27.9831 1 28.7979C1 29.6127 1.30818 30.3921 1.86836 30.99L2.24717 31.3949L1.86836 31.7999C1.30818 32.3977 1 33.1756 1 33.992C1 34.495 1.11396 34.9771 1.34028 35.4271L1.54253 35.8321L1.20545 36.1342C1.07544 36.2515 1 36.417 1 36.5906V81.3877C1 81.7252 1.27447 82 1.61154 82H6.80085C7.13792 82 7.41239 81.7252 7.41239 81.3877V75.5074H75.5844V81.3877C75.5844 81.7252 75.8589 82 76.1959 82H81.3852C81.7223 82 81.9968 81.7252 81.9968 81.3877V61.01H82V50.1462H81.9968L81.9984 50.1479ZM80.7737 23.5958C80.7737 24.6902 79.8845 25.5806 78.7914 25.5806H65.3679V21.6111H78.7914C79.8845 21.6111 80.7737 22.5014 80.7737 23.5958ZM65.3679 11.2214H78.7914C79.8845 11.2214 80.7737 12.1117 80.7737 13.2061C80.7737 14.3005 79.8845 15.1908 78.7914 15.1908H65.3679V11.2214V11.2214ZM62.1256 20.3849V16.4154H77.1718C78.2649 16.4154 79.1542 17.3057 79.1542 18.4002C79.1542 19.4946 78.2649 20.3849 77.1718 20.3849H62.1256V20.3849ZM63.7468 26.8067H78.793C79.3211 26.8067 79.8187 27.0125 80.1943 27.3885C80.5683 27.7646 80.7753 28.2628 80.7753 28.7915C80.7753 29.8859 79.8861 30.7762 78.793 30.7762H63.7468V26.8067ZM63.7468 32.0008H78.793C79.8861 32.0008 80.7753 32.8911 80.7753 33.9855C80.7753 35.08 79.8861 35.9703 78.793 35.9703H63.7468V32.0008ZM62.6152 34.2828L62.6585 34.2362V35.9687H60.9314L62.6168 34.2812L62.6152 34.2828ZM50.487 21.2865C52.0552 21.2865 53.5303 21.8988 54.641 23.0092L61.7516 30.1286C62.2476 30.6268 62.5221 31.2873 62.5221 31.9912C62.5221 32.6951 62.2476 33.3572 61.7516 33.8538L59.6377 35.9703H48.5978V30.7023H54.4709C54.8079 30.7023 55.0824 30.4275 55.0824 30.09C55.0824 29.7525 54.8079 29.4777 54.4709 29.4777H45.5449L46.4277 28.491C47.5127 27.2744 48.1114 25.7091 48.1114 24.0844C48.1114 23.3965 48.0055 22.7151 47.7952 22.0627L47.5464 21.2897H50.4886L50.487 21.2865ZM40.8869 33.3363C40.8869 34.7891 39.7071 35.9703 38.2561 35.9703H35.6253V30.7023H38.2561C39.7071 30.7023 40.8869 31.8835 40.8869 33.3363ZM40.2898 30.6718H42.6444C41.6332 30.908 41.4839 31.8369 41.4839 31.8369C41.4839 30.9626 40.2881 30.6718 40.2881 30.6718H40.2898ZM40.3524 35.9671C41.3636 35.734 41.5128 34.8035 41.5128 34.8035C41.5128 35.6778 42.7086 35.9687 42.7086 35.9687H40.354L40.3524 35.9671ZM42.1099 33.3331C42.1099 31.8803 43.2897 30.6991 44.7407 30.6991H47.3715V35.9671H44.7407C43.2897 35.9671 42.1099 34.7859 42.1099 33.3331ZM41.4984 18.6862C44.4694 18.6862 46.8851 21.1065 46.8851 24.0796C46.8851 27.0526 44.4678 29.4729 41.4984 29.4729C38.529 29.4729 36.1117 27.0526 36.1117 24.0796C36.1117 21.1065 38.529 18.6862 41.4984 18.6862V18.6862ZM21.2468 30.1254L23.7973 27.5733C23.8182 27.5524 23.8358 27.5283 23.8535 27.5042L27.7025 23.6505C27.725 23.6328 27.7491 23.6151 27.7699 23.5942L28.3574 23.006C29.4681 21.8955 30.9432 21.2832 32.5114 21.2832H35.4504L35.2032 22.0562C34.9929 22.7103 34.887 23.3917 34.887 24.0779C34.887 25.7043 35.4857 27.2696 36.5707 28.4845L37.4519 29.4713H28.5275C28.1905 29.4713 27.9144 29.7461 27.9144 30.0836C27.9144 30.4211 28.1889 30.6959 28.5275 30.6959H34.4006V35.9638H23.3607L21.2468 33.8473C20.2211 32.8204 20.2211 31.1491 21.2468 30.1221V30.1254ZM20.4747 34.5625L21.8936 35.9831L21.9322 36.0201H20.4747V34.5625ZM2.22469 23.5958C2.22469 22.5014 3.11392 21.6111 4.207 21.6111H16.0093V25.5806H4.207C3.11392 25.5806 2.22469 24.6902 2.22469 23.5958V23.5958ZM2.22469 28.7915C2.22469 27.6971 3.11392 26.8067 4.207 26.8067H19.2516V30.7762H4.207C3.11392 30.7762 2.22469 29.8859 2.22469 28.7915V28.7915ZM4.207 32.0024H19.2516V35.9719H4.207C3.11392 35.9719 2.22469 35.0816 2.22469 33.9871C2.22469 32.8927 3.11392 32.0024 4.207 32.0024ZM6.1893 46.5577H6.17486V57.4215H6.1893V80.7786H2.22469V42.3937H6.1893V46.5593V46.5577ZM75.5844 74.2845H7.414V54.8003C7.414 54.7505 7.40597 54.7039 7.39474 54.6573V49.3186C7.40597 49.272 7.414 49.2254 7.414 49.1756V42.3921H75.5844V74.2828V74.2845ZM2.22469 41.1643V37.1949H80.7737V41.1643H2.22469ZM80.7817 56.7127C80.7785 56.7384 80.7737 56.7626 80.7737 56.7883V80.7754H76.8091V42.3905H80.7737V51.1651C80.7737 51.1908 80.7785 51.2166 80.7817 51.2407V56.7127V56.7127Z" fill="#1A1A1A"/>
</svg>
