<svg width="103" height="82" viewBox="0 0 103 82" fill="none" xmlns="http://www.w3.org/2000/svg">
<g clip-path="url(#clip0_152_1399)">
<path d="M64.695 1.17142H25.695C23.7731 1.17142 22.215 2.74482 22.215 4.6857V66.115C22.215 68.0559 23.7731 69.6293 25.695 69.6293H64.695C66.617 69.6293 68.175 68.0559 68.175 66.115V4.6857C68.175 2.74482 66.617 1.17142 64.695 1.17142Z" fill="white"/>
<path d="M40.415 9.36133H31.455C30.2731 9.36133 29.315 10.3289 29.315 11.5224V22.8631C29.315 24.0566 30.2731 25.0241 31.455 25.0241H40.415C41.5969 25.0241 42.555 24.0566 42.555 22.8631V11.5224C42.555 10.3289 41.5969 9.36133 40.415 9.36133Z" fill="white"/>
<path d="M28.425 32.4567C27.985 32.4567 27.635 32.1032 27.635 31.6589C27.635 31.2145 27.985 30.8611 28.425 30.8611H61.975C62.415 30.8611 62.765 31.2145 62.765 31.6589C62.765 32.1032 62.405 32.4567 61.975 32.4567H28.425Z" fill="#1A1A1A"/>
<path d="M28.425 39.9397C27.985 39.9397 27.635 39.5862 27.635 39.1419C27.635 38.6975 27.985 38.3441 28.425 38.3441H61.975C62.415 38.3441 62.765 38.6975 62.765 39.1419C62.765 39.5862 62.405 39.9397 61.975 39.9397H28.425Z" fill="#1A1A1A"/>
<path d="M28.425 47.4227C27.985 47.4227 27.635 47.0692 27.635 46.6249C27.635 46.1805 27.985 45.8271 28.425 45.8271H61.975C62.415 45.8271 62.765 46.1906 62.765 46.6249C62.765 47.0591 62.405 47.4227 61.975 47.4227H28.425Z" fill="#1A1A1A"/>
<path d="M28.425 54.9057C27.985 54.9057 27.635 54.5522 27.635 54.1079C27.635 53.6635 27.985 53.3101 28.425 53.3101H61.975C62.415 53.3101 62.765 53.6736 62.765 54.1079C62.765 54.5421 62.405 54.9057 61.975 54.9057H28.425Z" fill="#1A1A1A"/>
<path d="M28.425 62.3887C27.985 62.3887 27.635 62.0251 27.635 61.5909C27.635 61.1566 27.985 60.7931 28.425 60.7931H49.935C50.375 60.7931 50.725 61.1465 50.725 61.5909C50.725 62.0352 50.375 62.3887 49.935 62.3887H28.425Z" fill="#1A1A1A"/>
<path d="M48.515 12.3C48.075 12.3 47.725 11.9466 47.725 11.5022C47.725 11.0579 48.075 10.7044 48.515 10.7044H61.975C62.415 10.7044 62.765 11.0579 62.765 11.5022C62.765 11.9466 62.405 12.3 61.975 12.3H48.515Z" fill="#1A1A1A"/>
<path d="M48.515 17.9956C48.075 17.9956 47.725 17.6421 47.725 17.1978C47.725 16.7534 48.075 16.4 48.515 16.4H61.975C62.415 16.4 62.765 16.7534 62.765 17.1978C62.765 17.6421 62.405 17.9956 61.975 17.9956H48.515Z" fill="#1A1A1A"/>
<path d="M48.515 23.681C48.075 23.681 47.725 23.3276 47.725 22.8833C47.725 22.4389 48.075 22.0855 48.515 22.0855H61.975C62.415 22.0855 62.765 22.4389 62.765 22.8833C62.765 23.3276 62.405 23.681 61.975 23.681H48.515Z" fill="#1A1A1A"/>
<path d="M31.445 25.9734C29.755 25.9734 28.375 24.5798 28.375 22.8732V11.5224C28.375 9.81578 29.755 8.42218 31.445 8.42218H40.415C42.105 8.42218 43.485 9.81578 43.485 11.5224V22.8732C43.485 24.5798 42.105 25.9734 40.415 25.9734H31.445ZM31.445 10.0177C30.625 10.0177 29.955 10.6943 29.955 11.5224V22.8732C29.955 23.7012 30.625 24.3778 31.445 24.3778H40.415C41.235 24.3778 41.905 23.7012 41.905 22.8732V11.5224C41.905 10.6943 41.235 10.0177 40.415 10.0177H31.445V10.0177Z" fill="#1A1A1A"/>
<path d="M27.065 82C25.295 82 23.735 80.9195 23.095 79.2532L0.985024 22.0249C0.135024 19.8133 1.21502 17.2988 3.40502 16.4303L21.425 9.34115V4.68573C21.425 2.31257 23.345 0.373657 25.695 0.373657H64.705C67.065 0.373657 68.975 2.31257 68.975 4.68573V7.88696L86.985 14.9761C89.175 15.8345 90.265 18.3389 89.415 20.5505L67.305 77.7889C66.655 79.4552 65.095 80.5357 63.315 80.5357C62.785 80.5357 62.265 80.4347 61.775 80.2429L47.035 74.4362L28.615 81.6971C28.115 81.899 27.595 81.9899 27.065 81.9899V82ZM3.88502 17.6522C2.36502 18.2581 1.60502 19.9951 2.20502 21.5402L24.305 78.7786C24.755 79.9399 25.835 80.6872 27.065 80.6872C27.435 80.6872 27.795 80.6165 28.145 80.4751L45.245 73.7394L36.895 70.4473L25.695 70.4271C23.345 70.4271 21.425 68.4882 21.425 66.115V10.7448L3.88502 17.6522ZM48.835 73.7394L62.255 79.0311C62.605 79.1724 62.965 79.233 63.335 79.233C64.555 79.233 65.665 78.4655 66.105 77.3143L88.205 20.0759C88.795 18.5409 88.035 16.7939 86.515 16.198L68.975 9.29065V66.115C68.975 68.4983 67.055 70.4271 64.705 70.4271H57.235L48.835 73.7293V73.7394ZM41.725 70.9421L47.045 73.0325L52.365 70.9421L52.275 70.4372H41.825L41.735 70.9421H41.725ZM25.695 1.68647C24.055 1.68647 22.725 3.02957 22.725 4.68573V66.115C22.725 67.7712 24.055 69.1143 25.695 69.1143H64.705C66.345 69.1143 67.675 67.7712 67.675 66.115V4.68573C67.675 3.02957 66.345 1.68647 64.705 1.68647H25.695V1.68647Z" fill="#1A1A1A"/>
<path d="M20.095 3.4436C20.095 1.96921 21.285 0.767487 22.745 0.767487H70.485C71.945 0.767487 73.145 1.96921 73.145 3.4436V67.5995C73.145 70.316 70.955 72.5276 68.265 72.5276H20.095V3.4436Z" fill="white"/>
<path d="M51.515 57.4303V43.9488C51.515 43.6256 51.775 43.363 52.095 43.363H55.315C55.635 43.363 55.895 43.6256 55.895 43.9488V57.4303H51.515V57.4303Z" fill="white"/>
<path d="M58.865 57.4303V34.4259C58.865 34.1027 59.125 33.8401 59.445 33.8401H62.665C62.985 33.8401 63.245 34.1027 63.245 34.4259V57.4303H58.865V57.4303Z" fill="white"/>
<path d="M44.155 57.4303V40.7577C44.155 40.4345 44.415 40.1719 44.735 40.1719H47.955C48.275 40.1719 48.535 40.4345 48.535 40.7577V57.4303H44.155V57.4303Z" fill="white"/>
<path d="M36.805 57.4303V46.7057C36.805 46.3825 37.065 46.1199 37.385 46.1199H40.605C40.925 46.1199 41.185 46.3825 41.185 46.7057V57.4303H36.805V57.4303Z" fill="white"/>
<path d="M29.445 57.4303V42.1815C29.445 41.8584 29.705 41.5958 30.025 41.5958H33.245C33.565 41.5958 33.825 41.8584 33.825 42.1815V57.4303H29.445V57.4303Z" fill="white"/>
<path d="M61.865 28.7505C61.705 28.7505 61.545 28.6899 61.415 28.5788L57.905 25.6704C57.685 25.4887 57.595 25.1958 57.665 24.9232C57.735 24.6404 57.955 24.4384 58.245 24.3879L61.655 23.8123C61.655 23.8123 61.735 23.8022 61.775 23.8022C62.165 23.8022 62.485 24.1153 62.495 24.5091L62.595 27.9931C62.595 28.2456 62.495 28.4172 62.395 28.5182C62.255 28.6596 62.065 28.7404 61.865 28.7404V28.7505Z" fill="white"/>
<path d="M28.145 59.8236C27.565 59.8236 27.105 59.349 27.105 58.7734C27.105 58.1978 27.575 57.7231 28.145 57.7231H65.095C65.675 57.7231 66.135 58.1978 66.135 58.7734C66.135 59.349 65.665 59.8236 65.095 59.8236H28.145Z" fill="white"/>
<path d="M14.935 72.5276C13.645 72.5276 12.385 72.0025 11.485 71.0835C10.595 70.1847 10.095 69.0032 10.055 67.7409H63.105C63.145 69.084 63.675 70.3463 64.615 71.2855C65.175 71.851 65.835 72.2751 66.565 72.5276H14.935Z" fill="white"/>
<path d="M29.305 8.87661C28.965 8.87661 28.685 8.59385 28.685 8.2505C28.685 7.90715 28.965 7.62439 29.305 7.62439H41.325C41.665 7.62439 41.945 7.90715 41.945 8.2505C41.945 8.59385 41.665 8.87661 41.325 8.87661H29.305V8.87661Z" fill="#1A1A1A"/>
<path d="M29.305 14.8347C28.965 14.8347 28.685 14.552 28.685 14.2086C28.685 13.8653 28.965 13.5825 29.305 13.5825H56.035C56.375 13.5825 56.655 13.8653 56.655 14.2086C56.655 14.552 56.375 14.8347 56.035 14.8347H29.305Z" fill="#1A1A1A"/>
<path d="M29.305 20.7828C28.965 20.7828 28.685 20.5 28.685 20.1567C28.685 19.8133 28.965 19.5305 29.305 19.5305H46.735C47.075 19.5305 47.355 19.8133 47.355 20.1567C47.355 20.5 47.075 20.7828 46.735 20.7828H29.305Z" fill="#1A1A1A"/>
<path d="M28.145 60.5911C27.155 60.5911 26.345 59.7732 26.345 58.7734C26.345 57.7737 27.155 56.9557 28.145 56.9557H28.685V42.1916C28.685 41.4443 29.285 40.8384 30.025 40.8384H33.245C33.985 40.8384 34.585 41.4443 34.585 42.1916V56.9557H36.035V46.7057C36.035 45.9584 36.635 45.3525 37.375 45.3525H40.595C41.335 45.3525 41.935 45.9584 41.935 46.7057V56.9557H43.385V40.7677C43.385 40.0204 43.985 39.4145 44.725 39.4145H47.945C48.685 39.4145 49.285 40.0204 49.285 40.7677V56.9557H50.735V43.9488C50.735 43.2015 51.335 42.5956 52.075 42.5956H55.295C56.035 42.5956 56.635 43.2015 56.635 43.9488V56.9557H58.085V34.436C58.085 33.6887 58.685 33.0828 59.425 33.0828H62.645C63.385 33.0828 63.985 33.6887 63.985 34.436V56.9557H65.075C66.065 56.9557 66.875 57.7737 66.875 58.7734C66.875 59.7732 66.065 60.5911 65.075 60.5911H28.145ZM28.145 58.1978C27.835 58.1978 27.575 58.4503 27.575 58.7734C27.575 59.0966 27.825 59.349 28.145 59.349H65.095C65.405 59.349 65.665 59.0966 65.665 58.7734C65.665 58.4503 65.415 58.1978 65.095 58.1978H28.145ZM59.305 34.3249L59.335 56.9557H62.765V34.2946L59.295 34.335L59.305 34.3249ZM51.955 43.8377L51.985 56.9456H55.415V43.7973L51.945 43.8377H51.955ZM44.595 40.6567L44.625 56.9456H48.055V40.6163L44.585 40.6567H44.595ZM37.245 46.5946L37.275 56.9456H40.705V46.5542L37.235 46.5946H37.245ZM29.885 42.0705L29.915 56.9456H33.345V42.0301L29.875 42.0705H29.885Z" fill="#1A1A1A"/>
<path d="M38.995 39.0409C38.885 39.0409 38.785 39.0106 38.695 38.9601L31.335 34.749C31.195 34.6682 31.085 34.537 31.045 34.3754C31.005 34.2138 31.025 34.0421 31.105 33.9007C31.215 33.7089 31.425 33.5877 31.645 33.5877C31.755 33.5877 31.855 33.618 31.945 33.6685L38.885 37.6473L45.905 30.2451C46.025 30.1239 46.185 30.0532 46.355 30.0532C46.455 30.0532 46.555 30.0734 46.645 30.1239L53.555 33.7695L58.755 27.3771L57.425 26.2764C56.975 25.9027 56.785 25.3069 56.935 24.7414C57.085 24.1658 57.535 23.7517 58.115 23.6507L61.525 23.0751C61.605 23.065 61.695 23.0549 61.775 23.0549C62.565 23.0549 63.235 23.7012 63.255 24.5091L63.355 27.9931C63.365 28.4071 63.225 28.7909 62.945 29.0737C62.665 29.3665 62.265 29.5382 61.865 29.5382C61.525 29.5382 61.205 29.417 60.935 29.1948L59.705 28.185L54.185 34.9712C54.065 35.1126 53.895 35.2035 53.705 35.2035C53.605 35.2035 53.505 35.1833 53.415 35.1328L46.465 31.467L39.435 38.8793C39.315 39.0005 39.155 39.0712 38.985 39.0712L38.995 39.0409ZM58.225 25.2766C58.405 25.4685 59.025 25.9835 61.005 27.6195L61.755 28.2456L61.875 28.2658C61.945 28.2658 62.005 28.2355 62.055 28.1951L62.095 28.1547L62.125 28.0133L62.025 24.5293C62.025 24.398 61.915 24.287 61.775 24.287L58.325 24.8727C58.235 24.8828 58.155 24.9535 58.125 25.0544C58.095 25.1453 58.125 25.2463 58.205 25.3069L58.225 25.2867V25.2766Z" fill="#1A1A1A"/>
<path d="M14.935 73.2951C13.445 73.2951 11.985 72.6892 10.945 71.6187C9.88498 70.5382 9.29498 69.1143 9.29498 67.5894C9.29498 67.2461 9.57498 66.9633 9.91498 66.9633H19.345V3.4436C19.345 1.54507 20.875 0 22.765 0H70.505C72.385 0 73.925 1.54507 73.925 3.4436V67.5995C73.925 70.7402 71.395 73.2951 68.285 73.2951H14.935ZM22.755 1.24212C21.555 1.24212 20.575 2.23177 20.575 3.4436V66.9734H63.245C63.585 66.9734 63.865 67.2562 63.865 67.5995C63.865 70.0535 65.835 72.053 68.265 72.053C70.695 72.053 72.675 70.0535 72.675 67.5995V3.4436C72.675 2.23177 71.695 1.24212 70.495 1.24212H22.755ZM10.595 68.3872C10.755 69.2759 11.175 70.0939 11.815 70.7402C12.625 71.5682 13.765 72.0429 14.935 72.0429H64.725L64.465 71.7904C63.455 70.8411 62.855 69.6798 62.675 68.3367L62.655 68.2155H10.565L10.595 68.3872V68.3872Z" fill="#1A1A1A"/>
<path d="M75.625 60.7022C84.3511 60.7022 91.425 53.5586 91.425 44.7466C91.425 35.9345 84.3511 28.7909 75.625 28.7909C66.8989 28.7909 59.825 35.9345 59.825 44.7466C59.825 53.5586 66.8989 60.7022 75.625 60.7022Z" fill="white"/>
<path d="M98.835 73.497C97.875 73.497 96.955 73.0931 96.295 72.3963L83.905 59.1975L83.805 59.2581C81.195 60.8436 78.225 61.6919 75.205 61.6919C75.055 61.6919 74.905 61.6919 74.755 61.6919C65.545 61.4394 58.255 53.6736 58.505 44.3729C58.745 35.3246 66.235 27.9527 75.205 27.9527C75.355 27.9527 75.505 27.9527 75.665 27.9527C80.115 28.0739 84.265 29.9421 87.335 33.214C90.405 36.4859 92.035 40.7677 91.915 45.2717C91.825 48.483 90.835 51.5933 89.035 54.2694L88.975 54.3603L101.365 67.5591C102.005 68.2357 102.345 69.1345 102.315 70.0736C102.295 71.0128 101.905 71.8813 101.235 72.5276C100.585 73.1537 99.735 73.497 98.845 73.497H98.835ZM88.045 55.5823C87.105 56.7234 86.355 57.4404 85.175 58.3291L85.045 58.4199L97.275 71.4571C97.675 71.8813 98.245 72.1337 98.835 72.1337C99.385 72.1337 99.905 71.9217 100.305 71.5379C101.155 70.7199 101.195 69.3566 100.385 68.4882L88.155 55.451L88.055 55.5722L88.045 55.5823ZM75.205 29.2958C66.965 29.2958 60.075 36.0719 59.855 44.3931C59.745 48.5234 61.235 52.4618 64.065 55.4712C66.895 58.4805 70.705 60.1973 74.795 60.3084C74.935 60.3084 75.075 60.3084 75.215 60.3084C83.455 60.3084 90.335 53.5323 90.565 45.2111C90.795 36.6576 84.095 29.518 75.625 29.2857C75.485 29.2857 75.345 29.2857 75.205 29.2857V29.2958Z" fill="#1A1A1A"/>
<path d="M74.895 56.6325C71.775 56.5517 68.865 55.2389 66.715 52.9466C64.565 50.6542 63.425 47.6549 63.505 44.5042C63.675 38.1623 68.925 33.002 75.205 33.002H75.525C78.645 33.0929 81.555 34.4057 83.705 36.698C85.855 38.9904 86.995 41.9897 86.915 45.1505C86.745 51.4924 81.495 56.6527 75.215 56.6527H74.895V56.6325ZM75.205 34.3451C69.645 34.3451 65.005 38.9096 64.855 44.5244C64.705 50.2907 69.225 55.1076 74.935 55.2692H75.215C80.775 55.2692 85.415 50.7047 85.565 45.0899C85.645 42.3027 84.635 39.6468 82.725 37.617C80.825 35.5872 78.245 34.4259 75.485 34.3552H75.205V34.3451Z" fill="#1A1A1A"/>
<path fill-rule="evenodd" clip-rule="evenodd" d="M73.965 41.4443C73.555 41.4443 73.215 41.1111 73.215 40.687C73.215 40.2628 73.545 39.9296 73.965 39.9296H80.285C80.695 39.9296 81.035 40.2628 81.035 40.687C81.035 41.1111 80.705 41.4443 80.285 41.4443H73.965V41.4443Z" fill="#1A1A1A"/>
<path fill-rule="evenodd" clip-rule="evenodd" d="M70.365 45.0798C69.955 45.0798 69.615 44.7466 69.615 44.3224C69.615 43.8983 69.945 43.565 70.365 43.565H80.285C80.695 43.565 81.035 43.8983 81.035 44.3224C81.035 44.7466 80.705 45.0798 80.285 45.0798H70.365Z" fill="#1A1A1A"/>
<path fill-rule="evenodd" clip-rule="evenodd" d="M70.365 48.7153C69.955 48.7153 69.615 48.382 69.615 47.9579C69.615 47.5338 69.945 47.2005 70.365 47.2005H76.685C77.095 47.2005 77.435 47.5338 77.435 47.9579C77.435 48.382 77.105 48.7153 76.685 48.7153H70.365V48.7153Z" fill="#1A1A1A"/>
</g>
<defs>
<clipPath id="clip0_152_1399">
<rect width="101.61" height="82" fill="white" transform="translate(0.695007)"/>
</clipPath>
</defs>
</svg>
